<svg xmlns="http://www.w3.org/2000/svg" version="1.1" xmlns:xlink="http://www.w3.org/1999/xlink" width="512" height="512"><svg xmlns="http://www.w3.org/2000/svg" version="1.1" xmlns:xlink="http://www.w3.org/1999/xlink" width="512" height="512"><svg width="512" height="512" viewBox="0 0 512 512" fill="none" xmlns="http://www.w3.org/2000/svg">
<g clip-path="url(#clip0_314_506)">
<path d="M249.795 436.801L173.624 391.699C164.76 386.45 153.56 392.839 153.56 403.14V444.182C153.56 448.93 156.09 453.312 160.199 455.686L249.85 507.537C253.965 509.919 259.034 509.919 263.15 507.537L475.324 385.037C479.44 382.662 481.971 378.273 481.971 373.525V333.342C481.971 323.103 470.88 316.707 462.016 321.838L263.228 436.864C259.065 439.269 253.934 439.246 249.795 436.794V436.801Z" fill="#1A73E8"></path>
<path d="M249.842 3.45573L37.6595 125.956C33.5436 128.33 31.0132 132.719 31.0132 137.468V382.475C31.0132 387.224 33.5436 391.613 37.6595 393.987L72.2344 413.949C81.0987 419.065 92.1733 412.669 92.1733 402.437V172.784C92.1733 168.036 94.7037 163.647 98.8196 161.272L249.842 74.0816C253.957 71.7073 259.026 71.7073 263.134 74.0816L414.156 161.272C418.272 163.647 420.803 168.036 420.803 172.784V252.509C420.803 262.74 431.877 269.136 440.741 264.021L475.316 244.058C479.432 241.684 481.963 237.295 481.963 232.546V137.468C481.963 132.719 479.432 128.33 475.316 125.956L263.134 3.45573C259.018 1.08149 253.95 1.08149 249.842 3.45573Z" fill="#1A73E8"></path>
<path d="M352.738 189.045L286.158 150.604V242.012C286.158 244.269 284.947 246.362 282.995 247.487L260.846 260.272C258.151 261.826 254.832 261.826 252.138 260.272L229.988 247.479C228.028 246.347 226.825 244.262 226.825 242.004V150.596L160.237 189.037C154.513 192.341 150.982 198.448 150.982 205.063V255.539C150.982 293.082 171.007 327.766 203.52 346.533L252.138 374.603C254.832 376.157 258.151 376.157 260.846 374.603L309.455 346.533C341.968 327.766 361.993 293.074 361.993 255.539V205.063C361.993 198.448 358.463 192.341 352.738 189.037V189.045Z" fill="#1564BA"></path>
</g>
<defs>
<clipPath id="clip0_314_506">
<rect width="512" height="512" fill="white"></rect>
</clipPath>
</defs>
</svg></svg><style>@media (prefers-color-scheme: light) { :root { filter: none; } }
@media (prefers-color-scheme: dark) { :root { filter: none; } }
</style></svg>