<?xml version="1.0" encoding="UTF-8"?>
<svg id="Layer_1" xmlns="http://www.w3.org/2000/svg" version="1.1" viewBox="0 0 3000 1000">
  <!-- Generator: Adobe Illustrator 29.3.0, SVG Export Plug-In . SVG Version: 2.1.0 Build 146)  -->
  <defs>
    <style>
      .st0 {
        fill: #1a73e8;
      }

      .st1 {
        fill: #333;
      }

      .st2 {
        fill: #1564ba;
      }
    </style>
  </defs>
  <g>
    <path class="st0" d="M353.13,732.14l-97.53-57.75c-11.35-6.72-25.69,1.46-25.69,14.65v52.55c0,6.08,3.24,11.69,8.5,14.73l114.79,66.39c5.27,3.05,11.76,3.05,17.03,0l271.67-156.85c5.27-3.04,8.51-8.66,8.51-14.74v-51.45c0-13.11-14.2-21.3-25.55-14.73l-254.53,147.28c-5.33,3.08-11.9,3.05-17.2-.09Z"/>
    <path class="st0" d="M353.19,177.28L81.51,334.13c-5.27,3.04-8.51,8.66-8.51,14.74v313.71c0,6.08,3.24,11.7,8.51,14.74l44.27,25.56c11.35,6.55,25.53-1.64,25.53-14.74v-294.05c0-6.08,3.24-11.7,8.51-14.74l193.37-111.64c5.27-3.04,11.76-3.04,17.02,0l193.37,111.64c5.27,3.04,8.51,8.66,8.51,14.74v102.08c0,13.1,14.18,21.29,25.53,14.74l44.27-25.56c5.27-3.04,8.51-8.66,8.51-14.74v-121.74c0-6.08-3.24-11.7-8.51-14.74l-271.68-156.85c-5.27-3.04-11.76-3.04-17.02,0Z"/>
    <path class="st2" d="M484.94,414.91l-85.25-49.22v117.04c0,2.89-1.55,5.57-4.05,7.01l-28.36,16.37c-3.45,1.99-7.7,1.99-11.15,0l-28.36-16.38c-2.51-1.45-4.05-4.12-4.05-7.01h0v-117.04l-85.26,49.22c-7.33,4.23-11.85,12.05-11.85,20.52v64.63c0,48.07,25.64,92.48,67.27,116.51l62.25,35.94c3.45,1.99,7.7,1.99,11.15,0l62.24-35.94c41.63-24.03,67.27-68.45,67.27-116.51v-64.63c0-8.47-4.52-16.29-11.85-20.52Z"/>
  </g>
  <g>
    <path class="st2" d="M987.82,299.85c-14.6-8.72-30.92-13.09-48.97-13.09h-131.34v315.94h58.67v-115.54h72.67c18.05,0,34.37-4.51,48.97-13.54,14.59-9.03,26.25-21.14,34.98-36.33,8.72-15.19,13.09-32.27,13.09-51.23s-4.37-35.5-13.09-50.55c-8.73-15.04-20.39-26.93-34.98-35.66ZM970.21,409.97c-3.77,6.93-8.73,12.49-14.89,16.7-6.17,4.22-13.02,6.32-20.54,6.32h-68.61v-92.07h68.61c7.52,0,14.36,2.03,20.54,6.09,6.16,4.06,11.13,9.48,14.89,16.25,3.76,6.77,5.64,14.52,5.64,23.24s-1.88,16.55-5.64,23.47Z"/>
    <path class="st2" d="M1210.55,359.87c-11.74,0-22.95,2.79-33.63,8.35-10.68,5.57-20.08,13.17-28.21,22.79-3.84,4.56-7.13,9.39-9.9,14.49l-.48-40.67h-54.61v237.86h55.97v-126.83c0-8.42,1.42-16.02,4.29-22.79,2.86-6.77,6.84-12.71,11.96-17.83,5.11-5.11,11.06-9.1,17.83-11.96,6.77-2.86,13.91-4.29,21.44-4.29,4.81,0,9.63.61,14.44,1.81,4.81,1.21,8.87,2.71,12.19,4.51l14.89-60.93c-3.01-1.2-6.85-2.26-11.51-3.16-4.67-.9-9.56-1.35-14.67-1.35Z"/>
    <path class="st2" d="M1444.35,393.05c-9.93-10.38-21.66-18.58-35.2-24.6-13.54-6.02-28.14-9.03-43.78-9.03-17.76,0-34.08,3.09-48.97,9.25-14.89,6.17-27.69,14.89-38.37,26.18-10.68,11.28-19.03,24.6-25.05,39.94-6.02,15.35-9.03,32.35-9.03,51,0,23.47,5.34,44.31,16.02,62.51,10.68,18.21,25.57,32.57,44.68,43.1,19.1,10.54,41.14,15.8,66.12,15.8,11.13,0,22.41-1.51,33.85-4.51,11.43-3,22.34-7.14,32.72-12.41,10.38-5.26,19.63-11.66,27.76-19.18l-27.53-38.36c-10.83,9.33-20.92,15.8-30.24,19.41-9.33,3.61-19.56,5.42-30.69,5.42-15.95,0-29.87-3.08-41.75-9.25-11.89-6.16-21.07-14.97-27.53-26.4-4.35-7.69-7.23-16.27-8.66-25.73h175.43l.45-19.41c.3-16.85-2.19-32.42-7.45-46.71-5.27-14.29-12.86-26.63-22.79-37.01ZM1328.13,417.19c10.08-5.71,22.49-8.58,37.24-8.58,9.63,0,18.43,2.03,26.4,6.09,7.97,4.06,14.51,9.63,19.63,16.7,5.11,7.07,8.12,15.27,9.03,24.6v2.26h-120.51c1.27-6.04,3.06-11.55,5.42-16.47,5.11-10.68,12.71-18.88,22.79-24.6Z"/>
    <path class="st2" d="M1673.63,490.76c-5.72-6.32-13.54-11.88-23.47-16.7-9.93-4.81-22.27-9.17-37.01-13.09-10.54-2.41-19.11-4.96-25.73-7.67-6.62-2.71-11.59-5.11-14.89-7.22-3.01-2.1-5.34-4.74-7-7.9-1.66-3.16-2.64-6.54-2.93-10.15,0-4.21.82-7.9,2.48-11.06,1.65-3.16,3.98-5.79,7-7.9,3-2.1,6.77-3.68,11.28-4.74,4.51-1.05,9.63-1.58,15.35-1.58,6.02,0,12.48,1.28,19.41,3.84,6.92,2.56,13.77,5.95,20.54,10.15,6.77,4.22,13.01,9.03,18.73,14.44l30.69-33.85c-6.93-7.82-15.28-14.51-25.05-20.08-9.78-5.56-20.31-9.85-31.59-12.86-11.28-3-22.95-4.51-34.98-4.51s-23.02,1.66-33.85,4.96c-10.83,3.31-20.31,8.12-28.43,14.44-8.12,6.32-14.52,13.77-19.18,22.34-4.67,8.58-7,18.13-7,28.66,0,8.43,1.28,16.25,3.84,23.47,2.55,7.22,6.39,13.7,11.51,19.41,6.01,6.93,14.44,13.17,25.27,18.73,10.83,5.57,24.37,10.46,40.62,14.67,10.23,2.41,18.57,4.82,25.05,7.22,6.47,2.41,11.21,4.67,14.22,6.77,5.42,4.22,8.12,9.93,8.12,17.15,0,3.91-.83,7.45-2.48,10.61-1.66,3.16-3.99,5.95-7,8.35-3.01,2.41-6.54,4.22-10.61,5.42-4.06,1.21-8.65,1.81-13.77,1.81-12.34,0-24.08-2.26-35.2-6.77-11.14-4.51-21.21-11.88-30.24-22.12l-36.11,31.14c10.53,13.24,24.15,23.4,40.85,30.47,16.7,7.07,35.58,10.61,56.64,10.61,17.15,0,32.57-3.16,46.26-9.48,13.69-6.32,24.52-15.04,32.5-26.18,7.97-11.13,11.96-23.77,11.96-37.91,0-8.72-1.21-16.7-3.61-23.92-2.41-7.22-6.47-13.54-12.19-18.96Z"/>
    <rect class="st2" x="1739.97" y="364.84" width="55.51" height="237.86"/>
    <path class="st2" d="M1793.46,258.1c-6.17-5.56-14.97-8.35-26.4-8.35-10.83,0-19.41,3.01-25.73,9.03-6.32,6.02-9.48,13.84-9.48,23.47,0,10.23,3.08,18.13,9.25,23.7,6.16,5.57,14.82,8.35,25.95,8.35s19.86-3,26.18-9.03c6.32-6.02,9.48-13.69,9.48-23.02,0-10.53-3.09-18.58-9.25-24.15Z"/>
    <path class="st2" d="M2031.99,392.08c-3.87-4.29-8.38-8.33-13.54-12.12-8.43-6.16-17.98-11.06-28.66-14.67-10.68-3.61-21.74-5.42-33.17-5.42-21.07,0-39.94,5.35-56.64,16.02-16.7,10.68-29.87,25.35-39.49,44.01-9.63,18.66-14.44,39.87-14.44,63.64s4.89,45.36,14.67,63.87c9.77,18.5,23.02,33.1,39.72,43.78,16.7,10.68,35.58,16.02,56.64,16.02,10.83,0,21.44-1.74,31.82-5.19,10.38-3.46,19.48-8.05,27.31-13.77,6.66-4.86,12.28-10.17,16.87-15.92l.73,30.36h53.71v-333.99h-55.52v123.37ZM2025.45,523.26c-5.57,11.44-13.31,20.47-23.24,27.08-9.93,6.62-21.37,9.93-34.3,9.93s-24.37-3.31-34.3-9.93c-9.93-6.61-17.68-15.64-23.24-27.08-5.57-11.43-8.35-24.67-8.35-39.72s2.78-27.91,8.35-39.49c5.56-11.58,13.31-20.61,23.24-27.08,9.93-6.47,21.36-9.7,34.3-9.7s24.37,3.24,34.3,9.7c9.93,6.47,17.67,15.5,23.24,27.08,5.56,11.59,8.35,24.75,8.35,39.49s-2.79,28.29-8.35,39.72Z"/>
    <path class="st2" d="M2315.43,398.24c-4.6-6.85-10.17-13.02-16.7-18.5-7.52-6.32-16.25-11.21-26.18-14.67-9.93-3.46-20.92-5.19-32.95-5.19-20.76,0-39.42,5.27-55.97,15.8-16.55,10.54-29.64,25.13-39.27,43.78-9.63,18.66-14.44,39.87-14.44,63.64s4.81,44.99,14.44,63.64c9.63,18.66,22.41,33.4,38.36,44.23,15.95,10.83,33.7,16.25,53.26,16.25,11.43,0,22.19-1.81,32.27-5.42,10.08-3.61,19.25-8.35,27.53-14.22,7.51-5.33,13.9-11.41,19.18-18.23v33.35h56.42v-237.86h-55.97v33.4ZM2285.64,548.54c-9.93,6.32-21.37,9.48-34.3,9.48s-24.3-3.16-34.08-9.48c-9.78-6.32-17.38-15.12-22.79-26.4-5.42-11.28-8.12-24.29-8.12-39.04s2.71-27.23,8.12-38.36c5.42-11.13,13.01-19.86,22.79-26.18,9.77-6.32,21.14-9.48,34.08-9.48s24.37,3.16,34.3,9.48c9.93,6.32,17.67,15.05,23.24,26.18,5.56,11.14,8.35,23.92,8.35,38.36s-2.79,27.76-8.35,39.04c-5.57,11.28-13.31,20.08-23.24,26.4Z"/>
    <path class="st2" d="M2607.22,370.71c-12.19-7.22-27.31-10.83-45.36-10.83-12.64,0-24.98,2.71-37.01,8.12-12.04,5.42-22.42,12.57-31.14,21.44-2.8,2.84-5.3,5.79-7.5,8.83l-.62-33.43h-54.16v237.86h55.52v-143.53c0-7.22,1.42-13.84,4.29-19.86,2.86-6.02,6.77-11.35,11.73-16.02,4.97-4.66,10.83-8.27,17.6-10.83,6.77-2.55,14.22-3.84,22.34-3.84,9.93-.3,18.35,1.43,25.27,5.19,6.92,3.77,12.03,9.63,15.35,17.6,3.31,7.98,4.97,17.98,4.97,30.01v141.27h55.51v-145.33c0-21.66-3.09-39.72-9.25-54.16-6.17-14.44-15.35-25.27-27.53-32.5Z"/>
    <path class="st2" d="M2871.03,364.84v33.4c-4.6-6.85-10.17-13.02-16.7-18.5-7.52-6.32-16.25-11.21-26.18-14.67-9.93-3.46-20.92-5.19-32.95-5.19-20.76,0-39.42,5.27-55.97,15.8-16.55,10.54-29.64,25.13-39.27,43.78-9.63,18.66-14.44,39.87-14.44,63.64s4.81,44.99,14.44,63.64c9.63,18.66,22.41,33.4,38.36,44.23,15.95,10.83,33.7,16.25,53.26,16.25,11.43,0,22.19-1.81,32.27-5.42,10.08-3.61,19.25-8.35,27.53-14.22,7.51-5.33,13.9-11.41,19.18-18.23v33.35h56.42v-237.86h-55.97ZM2841.24,548.54c-9.93,6.32-21.37,9.48-34.3,9.48s-24.3-3.16-34.08-9.48c-9.78-6.32-17.38-15.12-22.79-26.4-5.42-11.28-8.12-24.29-8.12-39.04s2.71-27.23,8.12-38.36c5.42-11.13,13.01-19.86,22.79-26.18,9.77-6.32,21.14-9.48,34.08-9.48s24.37,3.16,34.3,9.48c9.93,6.32,17.67,15.05,23.24,26.18,5.56,11.14,8.35,23.92,8.35,38.36s-2.79,27.76-8.35,39.04c-5.57,11.28-13.31,20.08-23.24,26.4Z"/>
  </g>
  <g>
    <path class="st1" d="M950.58,726.1c0-4.81,3.99-8.62,13.79-8.62,5.53,0,11.79,1.63,17.51,4.99l3.72-9.16c-5.53-3.63-13.52-5.63-21.14-5.63-17.42,0-25.58,8.71-25.58,18.96,0,23.59,37.74,14.61,37.74,28.31,0,4.72-4.17,8.26-14.06,8.26-7.8,0-15.88-2.9-20.96-6.99l-4.08,9.16c5.26,4.54,15.15,7.62,25.04,7.62,17.42,0,25.68-8.71,25.68-18.87,0-23.32-37.65-14.52-37.65-28.03Z"/>
    <path class="st1" d="M1047.75,707.68c-19.69,0-34.2,13.88-34.2,32.66s14.52,32.66,34.2,32.66,34.2-13.79,34.2-32.66-14.52-32.66-34.2-32.66ZM1047.75,762.66c-12.79,0-22.32-9.35-22.32-22.32s9.53-22.32,22.32-22.32,22.32,9.34,22.32,22.32-9.53,22.32-22.32,22.32Z"/>
    <polygon class="st1" points="1124.42 708.59 1112.63 708.59 1112.63 772.1 1157.63 772.1 1157.63 762.12 1124.42 762.12 1124.42 708.59"/>
    <path class="st1" d="M1227.67,743.97c0,13.06-5.81,18.69-16.06,18.69s-16.15-5.63-16.15-18.69v-35.38h-11.79v35.84c0,18.51,10.43,28.58,27.85,28.58s27.76-10.07,27.76-28.58v-35.84h-11.61v35.38Z"/>
    <path class="st1" d="M1281.65,726.1c0-4.81,3.99-8.62,13.79-8.62,5.53,0,11.79,1.63,17.51,4.99l3.72-9.16c-5.53-3.63-13.52-5.63-21.14-5.63-17.42,0-25.58,8.71-25.58,18.96,0,23.59,37.74,14.61,37.74,28.31,0,4.72-4.17,8.26-14.06,8.26-7.8,0-15.88-2.9-20.96-6.99l-4.08,9.16c5.26,4.54,15.15,7.62,25.04,7.62,17.42,0,25.68-8.71,25.68-18.87,0-23.32-37.65-14.52-37.65-28.03Z"/>
    <rect class="st1" x="1349.16" y="708.59" width="11.79" height="63.51"/>
    <path class="st1" d="M1465.56,708.59h-26.13v63.51h11.79v-18.33h14.34c16.69,0,27.04-8.62,27.04-22.59s-10.34-22.59-27.04-22.59ZM1465.02,743.79h-13.79v-25.22h13.79c10.34,0,15.7,4.63,15.7,12.61s-5.35,12.61-15.7,12.61Z"/>
    <polygon class="st1" points="1534.33 744.7 1565 744.7 1565 734.99 1534.33 734.99 1534.33 718.48 1568.9 718.48 1568.9 708.59 1522.54 708.59 1522.54 772.1 1570.17 772.1 1570.17 762.21 1534.33 762.21 1534.33 744.7"/>
    <polygon class="st1" points="1661.17 708.59 1636.4 750.69 1611.18 708.59 1601.47 708.59 1601.47 772.1 1612.72 772.1 1612.72 730.55 1633.59 764.84 1638.85 764.84 1659.72 730 1659.81 772.1 1670.97 772.1 1670.88 708.59 1661.17 708.59"/>
    <path class="st1" d="M1751.27,739.07c4.9-2.63,8.17-7.44,8.17-13.97,0-10.07-8.17-16.51-23.41-16.51h-29.76v63.51h31.57c16.33,0,24.86-6.35,24.86-17.24,0-8.26-4.63-13.61-11.43-15.79ZM1718.06,717.84h16.69c8.17,0,12.79,2.9,12.79,8.8s-4.63,8.71-12.79,8.71h-16.69v-17.51ZM1737.11,762.85h-19.05v-18.33h19.05c8.89,0,13.7,2.81,13.7,9.16s-4.81,9.16-13.7,9.16Z"/>
    <path class="st1" d="M1813.05,708.59l-28.58,63.51h12.16l6.26-14.7h31.75l6.35,14.7h12.34l-28.67-63.51h-11.61ZM1806.88,748.15l11.88-27.76,11.98,27.76h-23.86Z"/>
    <polygon class="st1" points="1897.61 739.53 1879.01 708.59 1866.4 708.59 1891.35 749.87 1891.35 772.1 1903.15 772.1 1903.15 749.69 1928.01 708.59 1916.39 708.59 1897.61 739.53"/>
    <path class="st1" d="M1969.65,708.59l-28.58,63.51h12.16l6.26-14.7h31.75l6.35,14.7h12.34l-28.67-63.51h-11.61ZM1963.48,748.15l11.88-27.76,11.98,27.76h-23.86Z"/>
    <path class="st1" d="M2089.32,731.18c0-14.06-10.34-22.59-27.04-22.59h-26.13v63.51h11.79v-18.51h14.34c.82,0,1.63,0,2.45-.09l12.97,18.6h12.7l-14.61-20.87c8.62-3.36,13.52-10.43,13.52-20.05ZM2061.74,743.88h-13.79v-25.31h13.79c10.34,0,15.7,4.63,15.7,12.61s-5.35,12.7-15.7,12.7Z"/>
    <path class="st1" d="M2140.22,708.59l-28.58,63.51h12.16l6.26-14.7h31.75l6.35,14.7h12.34l-28.67-63.51h-11.61ZM2134.05,748.15l11.88-27.76,11.98,27.76h-23.86Z"/>
    <polygon class="st1" points="2251.46 751.59 2216.43 708.59 2206.73 708.59 2206.73 772.1 2218.43 772.1 2218.43 729.1 2253.45 772.1 2263.16 772.1 2263.16 708.59 2251.46 708.59 2251.46 751.59"/>
    <path class="st1" d="M2367.68,708.59h-26.13v63.51h11.79v-18.33h14.34c16.69,0,27.04-8.62,27.04-22.59s-10.34-22.59-27.04-22.59ZM2367.14,743.79h-13.79v-25.22h13.79c10.34,0,15.7,4.63,15.7,12.61s-5.35,12.61-15.7,12.61Z"/>
    <path class="st1" d="M2477.82,731.18c0-14.06-10.34-22.59-27.04-22.59h-26.13v63.51h11.79v-18.51h14.34c.82,0,1.63,0,2.45-.09l12.97,18.6h12.7l-14.61-20.87c8.62-3.36,13.52-10.43,13.52-20.05ZM2450.24,743.88h-13.79v-25.31h13.79c10.34,0,15.7,4.63,15.7,12.61s-5.35,12.7-15.7,12.7Z"/>
    <polygon class="st1" points="2520.92 744.7 2551.59 744.7 2551.59 734.99 2520.92 734.99 2520.92 718.48 2555.49 718.48 2555.49 708.59 2509.13 708.59 2509.13 772.1 2556.76 772.1 2556.76 762.21 2520.92 762.21 2520.92 744.7"/>
    <path class="st1" d="M2595.77,726.1c0-4.81,3.99-8.62,13.79-8.62,5.53,0,11.79,1.63,17.51,4.99l3.72-9.16c-5.53-3.63-13.52-5.63-21.14-5.63-17.42,0-25.58,8.71-25.58,18.96,0,23.59,37.74,14.61,37.74,28.31,0,4.72-4.17,8.26-14.06,8.26-7.8,0-15.88-2.9-20.96-6.99l-4.08,9.16c5.26,4.54,15.15,7.62,25.04,7.62,17.42,0,25.68-8.71,25.68-18.87,0-23.32-37.65-14.52-37.65-28.03Z"/>
    <rect class="st1" x="2663.28" y="708.59" width="11.79" height="63.51"/>
    <path class="st1" d="M2718.08,726.1c0-4.81,3.99-8.62,13.79-8.62,5.53,0,11.79,1.63,17.51,4.99l3.72-9.16c-5.53-3.63-13.52-5.63-21.14-5.63-17.42,0-25.58,8.71-25.58,18.96,0,23.59,37.74,14.61,37.74,28.31,0,4.72-4.17,8.26-14.06,8.26-7.8,0-15.88-2.9-20.96-6.99l-4.08,9.16c5.26,4.54,15.15,7.62,25.04,7.62,17.42,0,25.68-8.71,25.68-18.87,0-23.32-37.65-14.52-37.65-28.03Z"/>
    <rect class="st1" x="2785.58" y="708.59" width="11.79" height="63.51"/>
  </g>
</svg>