<?xml version="1.0" encoding="UTF-8"?>
<svg id="Layer_1" xmlns="http://www.w3.org/2000/svg" version="1.1" viewBox="0 0 3000 1000">
  <!-- Generator: Adobe Illustrator 29.3.0, SVG Export Plug-In . SVG Version: 2.1.0 Build 146)  -->
  <defs>
    <style>
      .st0 {
        fill: #4d4d4d;
      }

      .st1 {
        fill: #1a73e8;
      }

      .st2 {
        fill: #1564ba;
      }

      .st3 {
        fill: #2ac64e;
      }
    </style>
  </defs>
  <g>
    <path class="st3" d="M325.8,732.1l-97.5-57.7c-11.3-6.7-25.7,1.5-25.7,14.6v52.6c0,6.1,3.2,11.7,8.5,14.7l114.8,66.4c5.3,3,11.8,3,17,0l271.7-156.8c5.3-3,8.5-8.7,8.5-14.7v-51.5c0-13.1-14.2-21.3-25.5-14.7l-254.5,147.3c-5.3,3.1-11.9,3-17.2,0Z"/>
    <path class="st1" d="M325.9,177.3L54.2,334.1c-5.3,3-8.5,8.7-8.5,14.7v313.7c0,6.1,3.2,11.7,8.5,14.7l44.3,25.6c11.3,6.6,25.5-1.6,25.5-14.7v-294.1c0-6.1,3.2-11.7,8.5-14.7l193.4-111.6c5.3-3,11.8-3,17,0l193.4,111.6c5.3,3,8.5,8.7,8.5,14.7v102.1c0,13.1,14.2,21.3,25.5,14.7l44.3-25.6c5.3-3,8.5-8.7,8.5-14.7v-121.7c0-6.1-3.2-11.7-8.5-14.7l-271.7-156.9c-5.3-3-11.8-3-17,0Z"/>
    <path class="st2" d="M457.6,414.9l-85.3-49.2v117c0,2.9-1.5,5.6-4.1,7l-28.4,16.4c-3.4,2-7.7,2-11.2,0l-28.4-16.4c-2.5-1.4-4-4.1-4-7h0v-117l-85.3,49.2c-7.3,4.2-11.8,12.1-11.8,20.5v64.6c0,48.1,25.6,92.5,67.3,116.5l62.2,35.9c3.4,2,7.7,2,11.2,0l62.2-35.9c41.6-24,67.3-68.4,67.3-116.5v-64.6c0-8.5-4.5-16.3-11.8-20.5Z"/>
  </g>
  <g>
    <g>
      <path class="st2" d="M962.8,294.2c-14.6-8.7-30.9-13.1-49-13.1h-131.3v315.9h58.7v-115.5h72.7c18.1,0,34.4-4.5,49-13.5,14.6-9,26.3-21.1,35-36.3,8.7-15.2,13.1-32.3,13.1-51.2s-4.4-35.5-13.1-50.5c-8.7-15-20.4-26.9-35-35.7ZM945.2,404.4c-3.8,6.9-8.7,12.5-14.9,16.7-6.2,4.2-13,6.3-20.5,6.3h-68.6v-92.1h68.6c7.5,0,14.4,2,20.5,6.1,6.2,4.1,11.1,9.5,14.9,16.3,3.8,6.8,5.6,14.5,5.6,23.2s-1.9,16.6-5.6,23.5Z"/>
      <path class="st2" d="M1185.5,354.3c-11.7,0-22.9,2.8-33.6,8.4-10.7,5.6-20.1,13.2-28.2,22.8-3.9,4.6-7.1,9.4-9.9,14.5l-.5-40.7h-54.6v237.9h56v-126.8c0-8.4,1.4-16,4.3-22.8,2.9-6.8,6.8-12.7,12-17.8,5.1-5.1,11.1-9.1,17.8-12,6.8-2.9,13.9-4.3,21.4-4.3s9.6.6,14.4,1.8c4.8,1.2,8.9,2.7,12.2,4.5l14.9-60.9c-3-1.2-6.8-2.3-11.5-3.2-4.7-.9-9.6-1.4-14.7-1.4Z"/>
      <path class="st2" d="M1419.3,387.4c-9.9-10.4-21.7-18.6-35.2-24.6-13.5-6-28.1-9-43.8-9s-34.1,3.1-49,9.3c-14.9,6.2-27.7,14.9-38.4,26.2-10.7,11.3-19,24.6-25,39.9-6,15.3-9,32.3-9,51s5.3,44.3,16,62.5c10.7,18.2,25.6,32.6,44.7,43.1,19.1,10.5,41.1,15.8,66.1,15.8s22.4-1.5,33.9-4.5c11.4-3,22.3-7.1,32.7-12.4,10.4-5.3,19.6-11.7,27.8-19.2l-27.5-38.4c-10.8,9.3-20.9,15.8-30.2,19.4-9.3,3.6-19.6,5.4-30.7,5.4-16,0-29.9-3.1-41.7-9.3-11.9-6.2-21.1-15-27.5-26.4-4.3-7.7-7.1-16.3-8.5-25.7h175.3l.4-19.4c.3-16.8-2.2-32.4-7.4-46.7-5.3-14.3-12.9-26.6-22.8-37ZM1303.1,411.6c10.1-5.7,22.5-8.6,37.2-8.6s18.4,2,26.4,6.1c8,4.1,14.5,9.6,19.6,16.7,5.1,7.1,8.1,15.3,9,24.6v2.3h-120.5c1.3-6,3-11.6,5.4-16.5,5.1-10.7,12.7-18.9,22.8-24.6Z"/>
      <path class="st2" d="M1648.6,485.2c-5.7-6.3-13.5-11.9-23.5-16.7-9.9-4.8-22.3-9.2-37-13.1-10.5-2.4-19.1-5-25.7-7.7-6.6-2.7-11.6-5.1-14.9-7.2-3-2.1-5.3-4.7-7-7.9-1.7-3.2-2.6-6.5-2.9-10.2,0-4.2.8-7.9,2.5-11.1,1.6-3.2,4-5.8,7-7.9,3-2.1,6.8-3.7,11.3-4.7,4.5-1.1,9.6-1.6,15.3-1.6s12.5,1.3,19.4,3.8c6.9,2.6,13.8,5.9,20.5,10.2,6.8,4.2,13,9,18.7,14.4l30.7-33.9c-6.9-7.8-15.3-14.5-25.1-20.1-9.8-5.6-20.3-9.9-31.6-12.9-11.3-3-22.9-4.5-35-4.5s-23,1.7-33.9,5c-10.8,3.3-20.3,8.1-28.4,14.4-8.1,6.3-14.5,13.8-19.2,22.3-4.7,8.6-7,18.1-7,28.7s1.3,16.2,3.8,23.5c2.6,7.2,6.4,13.7,11.5,19.4,6,6.9,14.4,13.2,25.3,18.7,10.8,5.6,24.4,10.5,40.6,14.7,10.2,2.4,18.6,4.8,25,7.2,6.5,2.4,11.2,4.7,14.2,6.8,5.4,4.2,8.1,9.9,8.1,17.2s-.8,7.4-2.5,10.6c-1.7,3.2-4,5.9-7,8.4-3,2.4-6.5,4.2-10.6,5.4-4.1,1.2-8.7,1.8-13.8,1.8-12.3,0-24.1-2.3-35.2-6.8-11.1-4.5-21.2-11.9-30.2-22.1l-36.1,31.1c10.5,13.2,24.1,23.4,40.8,30.5,16.7,7.1,35.6,10.6,56.6,10.6s32.6-3.2,46.3-9.5,24.5-15,32.5-26.2c8-11.1,12-23.8,12-37.9s-1.2-16.7-3.6-23.9c-2.4-7.2-6.5-13.5-12.2-19Z"/>
      <rect class="st2" x="1714.9" y="359.2" width="55.5" height="237.9"/>
      <path class="st2" d="M1742,244.1c-10.8,0-19.4,3-25.7,9-6.3,6-9.5,13.8-9.5,23.5s3.1,18.1,9.3,23.7c6.2,5.6,14.8,8.4,26,8.4s19.9-3,26.2-9c6.3-6,9.5-13.7,9.5-23s-3.1-18.6-9.3-24.1c-6.2-5.6-15-8.4-26.4-8.4Z"/>
      <path class="st3" d="M2083,324.9c-13.4-14.1-29.3-25-47.8-32.5-18.5-7.5-39.2-11.3-62.1-11.3h-126.8v315.9h126.8c22.9,0,43.6-3.8,62.3-11.3,18.7-7.5,34.6-18.3,47.8-32.3,13.2-14,23.4-30.7,30.5-50.1,7.1-19.4,10.6-40.8,10.6-64.3s-3.5-44.8-10.6-64.1c-7.1-19.3-17.3-36-30.7-50.1ZM2058.4,482.2c-4.2,12.8-10.4,23.7-18.5,32.7-8.1,9-18,16-29.6,20.8-11.6,4.8-24.8,7.2-39.5,7.2h-65.9v-207.6h65.9c14.7,0,27.8,2.4,39.3,7.2,11.4,4.8,21.3,11.7,29.6,20.8,8.3,9,14.5,19.9,18.7,32.7,4.2,12.8,6.3,27.2,6.3,43.1s-2.1,30.3-6.3,43.1Z"/>
      <path class="st3" d="M2342.7,392.8c-4.6-6.9-10.1-13.1-16.7-18.6-7.5-6.3-16.2-11.2-26.2-14.7-9.9-3.5-20.9-5.2-33-5.2-20.8,0-39.4,5.3-56,15.8-16.6,10.5-29.6,25.1-39.3,43.8-9.6,18.7-14.4,39.9-14.4,63.6s4.8,45,14.4,63.6c9.6,18.7,22.4,33.4,38.4,44.2,15.9,10.8,33.7,16.2,53.3,16.2s22.2-1.8,32.3-5.4c10.1-3.6,19.3-8.4,27.5-14.2,7.5-5.3,13.9-11.5,19.2-18.3v33.4h56.4v-237.9h-56v33.5ZM2312.9,542.9c-9.9,6.3-21.4,9.5-34.3,9.5s-24.3-3.2-34.1-9.5c-9.8-6.3-17.4-15.1-22.8-26.4s-8.1-24.3-8.1-39,2.7-27.2,8.1-38.4c5.4-11.1,13-19.9,22.8-26.2,9.8-6.3,21.1-9.5,34.1-9.5s24.4,3.2,34.3,9.5c9.9,6.3,17.7,15,23.2,26.2,5.6,11.1,8.3,23.9,8.3,38.4s-2.8,27.8-8.3,39c-5.6,11.3-13.3,20.1-23.2,26.4Z"/>
      <path class="st3" d="M2634.5,365.1c-12.2-7.2-27.3-10.8-45.4-10.8s-25,2.7-37,8.1c-12,5.4-22.4,12.6-31.1,21.4-2.8,2.9-5.3,5.9-7.5,9l-.6-33.6h-54.2v237.9h55.5v-143.5c0-7.2,1.4-13.8,4.3-19.9,2.9-6,6.8-11.4,11.7-16,5-4.7,10.8-8.3,17.6-10.8,6.8-2.6,14.2-3.8,22.3-3.8,9.9-.3,18.3,1.4,25.3,5.2,6.9,3.8,12,9.6,15.3,17.6,3.3,8,5,18,5,30v141.3h55.5v-145.3c0-21.7-3.1-39.7-9.2-54.2-6.2-14.4-15.3-25.3-27.5-32.5Z"/>
      <path class="st3" d="M2898.3,359.2v33.5c-4.6-6.9-10.1-13.1-16.7-18.6-7.5-6.3-16.2-11.2-26.2-14.7-9.9-3.5-20.9-5.2-33-5.2-20.8,0-39.4,5.3-56,15.8-16.6,10.5-29.6,25.1-39.3,43.8-9.6,18.7-14.4,39.9-14.4,63.6s4.8,45,14.4,63.6c9.6,18.7,22.4,33.4,38.4,44.2,15.9,10.8,33.7,16.2,53.3,16.2s22.2-1.8,32.3-5.4c10.1-3.6,19.3-8.4,27.5-14.2,7.5-5.3,13.9-11.5,19.2-18.3v33.4h56.4v-237.9h-56ZM2868.5,542.9c-9.9,6.3-21.4,9.5-34.3,9.5s-24.3-3.2-34.1-9.5c-9.8-6.3-17.4-15.1-22.8-26.4s-8.1-24.3-8.1-39,2.7-27.2,8.1-38.4c5.4-11.1,13-19.9,22.8-26.2,9.8-6.3,21.1-9.5,34.1-9.5s24.4,3.2,34.3,9.5,17.7,15,23.2,26.2c5.6,11.1,8.3,23.9,8.3,38.4s-2.8,27.8-8.3,39c-5.6,11.3-13.3,20.1-23.2,26.4Z"/>
    </g>
    <g>
      <path class="st0" d="M822.3,734.9c-2.8-1.4-6.5-2.8-10.9-4.2-3.5-1.2-6.3-2.2-8.3-3.1-2-.9-3.7-2.1-5-3.7s-2-3.5-2-5.9,1-5.4,2.9-7,4.5-2.4,7.7-2.4,6.3.9,8.3,2.8c2,1.9,3.3,4.2,3.7,6.8h12.3c-.6-5.6-3-10.1-7.2-13.5-4.2-3.5-9.9-5.2-17.1-5.2s-8.5.8-12,2.3c-3.5,1.6-6.1,3.8-8,6.6-1.9,2.9-2.8,6.2-2.8,10s1,7.8,2.9,10.5c1.9,2.7,4.3,4.7,7,6.1,2.8,1.4,6.3,2.8,10.7,4.2,3.6,1.2,6.4,2.3,8.5,3.2,2.1.9,3.8,2.2,5.2,3.8,1.4,1.6,2.1,3.7,2.1,6.2s-.9,5.3-2.8,7.2-4.6,2.8-8,2.8-6.9-1.1-9.2-3.3c-2.3-2.2-3.6-4.8-3.9-7.9h-12.1c.3,4,1.6,7.5,3.9,10.6,2.3,3.1,5.3,5.4,9.1,7.1,3.8,1.7,8.1,2.5,12.8,2.5s9.1-.9,12.4-2.7c3.4-1.8,5.9-4.2,7.6-7.1,1.7-3,2.5-6.2,2.5-9.6s-1-8-2.9-10.8c-2-2.7-4.4-4.8-7.2-6.2Z"/>
      <path class="st0" d="M923.9,704c-5.3-3.1-11.2-4.6-17.7-4.6s-12.5,1.5-17.8,4.6c-5.3,3.1-9.4,7.3-12.5,12.8-3.1,5.5-4.6,11.7-4.6,18.6s1.5,13.1,4.6,18.6c3.1,5.5,7.2,9.8,12.5,12.8,5.3,3.1,11.2,4.6,17.8,4.6s12.4-1.5,17.7-4.6c5.3-3.1,9.4-7.4,12.4-12.8,3-5.5,4.5-11.7,4.5-18.6s-1.5-13.1-4.5-18.6c-3-5.5-7.2-9.7-12.4-12.8ZM926.3,748.8c-2,3.9-4.7,6.8-8.2,8.9s-7.5,3.1-11.9,3.1-8.5-1-12.1-3.1-6.3-5-8.2-8.9c-2-3.8-2.9-8.3-2.9-13.4s1-9.6,2.9-13.4c2-3.9,4.7-6.8,8.2-8.9,3.5-2.1,7.5-3.1,12.1-3.1s8.4,1,11.9,3.1c3.5,2.1,6.2,5,8.2,8.9,2,3.8,2.9,8.3,2.9,13.4s-1,9.6-2.9,13.4Z"/>
      <polygon class="st0" points="993.5 700.3 982.2 700.3 982.2 770.6 1017.8 770.6 1017.8 761.7 993.5 761.7 993.5 700.3"/>
      <path class="st0" d="M1098.8,742c0,6.2-1.4,10.9-4.1,13.9-2.8,3.1-6.6,4.6-11.5,4.6s-8.8-1.5-11.6-4.6c-2.8-3.1-4.1-7.7-4.1-13.9v-41.7h-11.4v41.7c0,9.6,2.5,16.9,7.4,21.9,4.9,4.9,11.4,7.4,19.5,7.4s14.7-2.5,19.7-7.4c5-4.9,7.5-12.2,7.5-21.9v-41.7h-11.4v41.7Z"/>
      <path class="st0" d="M1189.4,734.9c-2.8-1.4-6.5-2.8-10.9-4.2-3.5-1.2-6.3-2.2-8.3-3.1-2-.9-3.7-2.1-5-3.7s-2-3.5-2-5.9,1-5.4,2.9-7,4.5-2.4,7.7-2.4,6.3.9,8.3,2.8c2,1.9,3.3,4.2,3.7,6.8h12.3c-.6-5.6-3-10.1-7.2-13.5-4.2-3.5-9.9-5.2-17.1-5.2s-8.5.8-12,2.3c-3.5,1.6-6.1,3.8-8,6.6-1.9,2.9-2.8,6.2-2.8,10s1,7.8,2.9,10.5c1.9,2.7,4.3,4.7,7,6.1,2.8,1.4,6.3,2.8,10.7,4.2,3.6,1.2,6.4,2.3,8.5,3.2,2.1.9,3.8,2.2,5.2,3.8,1.4,1.6,2.1,3.7,2.1,6.2s-.9,5.3-2.8,7.2-4.6,2.8-8,2.8-6.9-1.1-9.2-3.3c-2.3-2.2-3.6-4.8-3.9-7.9h-12.1c.3,4,1.6,7.5,3.9,10.6,2.3,3.1,5.3,5.4,9.1,7.1,3.8,1.7,8.1,2.5,12.8,2.5s9.1-.9,12.4-2.7c3.4-1.8,5.9-4.2,7.6-7.1,1.7-3,2.5-6.2,2.5-9.6s-1-8-2.9-10.8c-2-2.7-4.4-4.8-7.2-6.2Z"/>
      <rect class="st0" x="1240.7" y="700.3" width="11.4" height="70.3"/>
      <path class="st0" d="M1372.8,700.3h-23.9v70.3h11.4v-27.3h12.6c7.9,0,13.9-1.9,18.1-5.7,4.2-3.8,6.3-9,6.3-15.7s-2-12-6.1-15.8c-4.1-3.8-10.2-5.8-18.3-5.8ZM1371.6,734h-11.4v-24.4h11.4c4.9,0,8.5,1,10.7,3.1,2.2,2.1,3.3,5.1,3.3,9.1,0,8.1-4.7,12.1-14,12.1Z"/>
      <path class="st0" d="M1481.7,735.2c3.1-3.5,4.6-8,4.6-13.5s-2.1-11.6-6.2-15.5c-4.1-3.9-10.2-5.9-18.3-5.9h-24.8v70.3h11.4v-28.1h8.1l17.5,28.1h12.7l-18.4-28.6c5.8-1,10.3-3.3,13.4-6.8ZM1448.3,734.4v-24.4h12.6c4.7,0,8.2,1.1,10.4,3.2,2.2,2.2,3.3,5.2,3.3,9,0,8.1-4.6,12.1-13.7,12.1h-12.6Z"/>
      <polygon class="st0" points="1526.4 770.6 1566.7 770.6 1566.7 761.3 1537.8 761.3 1537.8 739.5 1563.7 739.5 1563.7 730.8 1537.8 730.8 1537.8 709.4 1566.7 709.4 1566.7 700.3 1526.4 700.3 1526.4 770.6"/>
      <path class="st0" d="M1643.7,734.9c-2.8-1.4-6.5-2.8-10.9-4.2-3.5-1.2-6.3-2.2-8.3-3.1-2-.9-3.7-2.1-5-3.7s-2-3.5-2-5.9,1-5.4,2.9-7,4.5-2.4,7.7-2.4,6.3.9,8.3,2.8c2,1.9,3.3,4.2,3.7,6.8h12.3c-.6-5.6-3-10.1-7.2-13.5-4.2-3.5-9.9-5.2-17.1-5.2s-8.5.8-12,2.3c-3.5,1.6-6.1,3.8-8,6.6-1.9,2.9-2.8,6.2-2.8,10s1,7.8,2.9,10.5c1.9,2.7,4.3,4.7,7,6.1,2.8,1.4,6.3,2.8,10.7,4.2,3.6,1.2,6.4,2.3,8.5,3.2,2.1.9,3.8,2.2,5.2,3.8,1.4,1.6,2.1,3.7,2.1,6.2s-.9,5.3-2.8,7.2c-1.9,1.9-4.6,2.8-8,2.8s-6.9-1.1-9.2-3.3c-2.3-2.2-3.6-4.8-3.9-7.9h-12.1c.3,4,1.6,7.5,3.9,10.6,2.3,3.1,5.3,5.4,9.1,7.1,3.8,1.7,8.1,2.5,12.8,2.5s9.1-.9,12.4-2.7c3.4-1.8,5.9-4.2,7.6-7.1,1.7-3,2.5-6.2,2.5-9.6s-1-8-2.9-10.8c-2-2.7-4.4-4.8-7.2-6.2Z"/>
      <rect class="st0" x="1695" y="700.3" width="11.4" height="70.3"/>
      <path class="st0" d="M1786.1,734.9c-2.8-1.4-6.5-2.8-10.9-4.2-3.5-1.2-6.3-2.2-8.3-3.1-2-.9-3.7-2.1-5-3.7s-2-3.5-2-5.9,1-5.4,2.9-7c1.9-1.6,4.5-2.4,7.7-2.4s6.3.9,8.3,2.8c2,1.9,3.3,4.2,3.7,6.8h12.3c-.6-5.6-3-10.1-7.2-13.5-4.2-3.5-9.9-5.2-17.1-5.2s-8.5.8-12,2.3c-3.5,1.6-6.1,3.8-8,6.6-1.9,2.9-2.8,6.2-2.8,10s1,7.8,2.9,10.5c1.9,2.7,4.3,4.7,7,6.1,2.8,1.4,6.3,2.8,10.7,4.2,3.6,1.2,6.4,2.3,8.5,3.2,2.1.9,3.8,2.2,5.2,3.8,1.4,1.6,2.1,3.7,2.1,6.2s-.9,5.3-2.8,7.2c-1.9,1.9-4.6,2.8-8,2.8s-6.9-1.1-9.2-3.3c-2.3-2.2-3.6-4.8-3.9-7.9h-12.1c.3,4,1.6,7.5,3.9,10.6,2.3,3.1,5.3,5.4,9.1,7.1,3.8,1.7,8.1,2.5,12.8,2.5s9.1-.9,12.4-2.7c3.4-1.8,5.9-4.2,7.6-7.1,1.7-3,2.5-6.2,2.5-9.6s-1-8-2.9-10.8c-2-2.7-4.4-4.8-7.2-6.2Z"/>
      <rect class="st0" x="1837.4" y="700.3" width="11.4" height="70.3"/>
      <polygon class="st0" points="1940.2 709.4 1959.7 709.4 1959.7 770.6 1971.2 770.6 1971.2 709.4 1990.8 709.4 1990.8 700.3 1940.2 700.3 1940.2 709.4"/>
      <polygon class="st0" points="2029.2 770.6 2069.4 770.6 2069.4 761.3 2040.5 761.3 2040.5 739.5 2066.4 739.5 2066.4 730.8 2040.5 730.8 2040.5 709.4 2069.4 709.4 2069.4 700.3 2029.2 700.3 2029.2 770.6"/>
      <path class="st0" d="M2155,735.2c3.1-3.5,4.6-8,4.6-13.5s-2.1-11.6-6.2-15.5c-4.1-3.9-10.2-5.9-18.3-5.9h-24.8v70.3h11.4v-28.1h8.1l17.5,28.1h12.7l-18.4-28.6c5.8-1,10.3-3.3,13.4-6.8ZM2121.7,734.4v-24.4h12.6c4.7,0,8.2,1.1,10.4,3.2,2.2,2.2,3.3,5.2,3.3,9,0,8.1-4.6,12.1-13.7,12.1h-12.6Z"/>
      <polygon class="st0" points="2227 758.4 2206.8 700.3 2194.5 700.3 2219.8 770.6 2234.3 770.6 2259.7 700.3 2247.4 700.3 2227 758.4"/>
      <polygon class="st0" points="2298 770.6 2338.3 770.6 2338.3 761.3 2309.4 761.3 2309.4 739.5 2335.3 739.5 2335.3 730.8 2309.4 730.8 2309.4 709.4 2338.3 709.4 2338.3 700.3 2298 700.3 2298 770.6"/>
      <path class="st0" d="M2423.9,735.2c3.1-3.5,4.6-8,4.6-13.5s-2.1-11.6-6.2-15.5c-4.1-3.9-10.2-5.9-18.3-5.9h-24.8v70.3h11.4v-28.1h8.1l17.5,28.1h12.7l-18.4-28.6c5.8-1,10.3-3.3,13.4-6.8ZM2390.6,734.4v-24.4h12.6c4.7,0,8.2,1.1,10.4,3.2,2.2,2.2,3.3,5.2,3.3,9,0,8.1-4.6,12.1-13.7,12.1h-12.6Z"/>
      <rect class="st0" x="2468.6" y="700.3" width="11.4" height="70.3"/>
      <polygon class="st0" points="2523.6 770.6 2535 770.6 2535 740 2559.9 740 2559.9 731.3 2535 731.3 2535 709.4 2565.2 709.4 2565.2 700.3 2523.6 700.3 2523.6 770.6"/>
      <rect class="st0" x="2605.2" y="700.3" width="11.4" height="70.3"/>
      <polygon class="st0" points="2699.4 700.3 2671.5 732.4 2671.5 700.3 2660.2 700.3 2660.2 770.6 2671.5 770.6 2671.5 738 2699.3 770.6 2713.1 770.6 2682.2 735 2713.1 700.3 2699.4 700.3"/>
      <path class="st0" d="M2772.1,701.4l-25.9,69.2h12.1l5.4-15.2h29.7l5.4,15.2h12.1l-25.8-69.2h-13ZM2766.9,746.6l11.7-32.9,11.6,32.9h-23.3Z"/>
      <path class="st0" d="M2885.4,734.9c-2.8-1.4-6.5-2.8-10.9-4.2-3.5-1.2-6.3-2.2-8.3-3.1-2-.9-3.7-2.1-5-3.7s-2-3.5-2-5.9,1-5.4,2.9-7,4.5-2.4,7.7-2.4,6.3.9,8.3,2.8c2,1.9,3.3,4.2,3.7,6.8h12.3c-.6-5.6-3-10.1-7.2-13.5s-9.9-5.2-17.1-5.2-8.5.8-12,2.3c-3.5,1.6-6.1,3.8-8,6.6-1.9,2.9-2.8,6.2-2.8,10s1,7.8,2.9,10.5c1.9,2.7,4.3,4.7,7,6.1,2.8,1.4,6.3,2.8,10.7,4.2,3.6,1.2,6.4,2.3,8.5,3.2,2.1.9,3.8,2.2,5.2,3.8,1.4,1.6,2.1,3.7,2.1,6.2s-.9,5.3-2.8,7.2c-1.9,1.9-4.6,2.8-8,2.8s-6.9-1.1-9.2-3.3c-2.3-2.2-3.6-4.8-3.9-7.9h-12.1c.3,4,1.6,7.5,3.9,10.6,2.3,3.1,5.3,5.4,9.1,7.1,3.8,1.7,8.1,2.5,12.8,2.5s9.1-.9,12.4-2.7c3.4-1.8,5.9-4.2,7.6-7.1,1.7-3,2.5-6.2,2.5-9.6s-1-8-2.9-10.8c-2-2.7-4.4-4.8-7.2-6.2Z"/>
      <rect class="st0" x="2936.7" y="700.3" width="11.4" height="70.3"/>
    </g>
  </g>
</svg>