<?xml version="1.0" encoding="UTF-8"?>
<svg id="Layer_1" xmlns="http://www.w3.org/2000/svg" version="1.1" viewBox="0 0 192 192">
  <!-- Generator: Adobe Illustrator 29.3.0, SVG Export Plug-In . SVG Version: 2.1.0 Build 146)  -->
  <defs>
    <style>
      .st0 {
        fill: #1a73e8;
      }

      .st1 {
        fill: #1564ba;
      }

      .st2 {
        fill: #2ac64e;
      }
    </style>
  </defs>
  <path class="st2" d="M93.8,156l-25.2-14.9c-2.9-1.7-6.6.4-6.6,3.8v13.6c0,1.6.8,3,2.2,3.8l29.7,17.2c1.4.8,3,.8,4.4,0l70.2-40.5c1.4-.8,2.2-2.2,2.2-3.8v-13.3c0-3.4-3.7-5.5-6.6-3.8l-65.8,38.1c-1.4.8-3.1.8-4.4,0h0Z"/>
  <path class="st0" d="M93.8,12.6L23.6,53.1c-1.4.8-2.2,2.2-2.2,3.8v81.1c0,1.6.8,3,2.2,3.8l11.4,6.6c2.9,1.7,6.6-.4,6.6-3.8v-76c0-1.6.8-3,2.2-3.8l50-28.8c1.4-.8,3-.8,4.4,0l50,28.8c1.4.8,2.2,2.2,2.2,3.8v26.4c0,3.4,3.7,5.5,6.6,3.8l11.4-6.6c1.4-.8,2.2-2.2,2.2-3.8v-31.5c0-1.6-.8-3-2.2-3.8L98.2,12.6c-1.4-.8-3-.8-4.4,0Z"/>
  <path class="st1" d="M127.8,74l-22-12.7v30.2c0,.8-.4,1.4-1.1,1.8l-7.3,4.2c-.9.5-2,.5-2.9,0l-7.3-4.2c-.7-.4-1.1-1.1-1.1-1.8h0v-30.2l-22,12.7c-1.9,1.1-3.1,3.1-3.1,5.3v16.7c0,12.4,6.6,23.9,17.4,30.1l16.1,9.3c.9.5,2,.5,2.9,0l16.1-9.3c10.8-6.2,17.4-17.7,17.4-30.1v-16.7c0-2.2-1.2-4.2-3.1-5.3h0Z"/>
</svg>